<svg id="BCID" xmlns="http://www.w3.org/2000/svg" viewBox="0 0 554.31 523.05"><defs><style>.cls-1{fill:#fff;}.cls-2{fill:#e3a82b;}.cls-3{fill:#65799e;}</style></defs><path class="cls-1" d="M148.94,303.26c0-5.51-.39-7-4.1-7.27l-2.59-.18c-.42-.33-.3-1.83.08-1.86,4.46-.4,10.08-.6,17.77-.6,5.2,0,10.16.38,13.88,2.09a9.73,9.73,0,0,1,6.28,9.31c0,5.36-3.47,8.11-8.43,10.19,0,.75.67,1,1.57,1.12,4.47.75,11.08,4.47,11.08,12.43,0,8.64-7.11,14.45-22,14.45-2.39,0-6.44-.23-9.91-.23-3.64,0-6.45.15-9.5.23a1.33,1.33,0,0,1-.17-1.86l1.49-.23c4.38-.67,4.54-1.49,4.54-9.3Zm6.78,9.9c0,2.08.08,2.23,4.3,2.08,8.42-.3,13-2.53,13-9.53,0-7.29-6-10-12.31-10a11.1,11.1,0,0,0-3.8.45c-.83.22-1.16.6-1.16,1.93Zm0,17.27c0,2.68.16,6.48,1.73,8.11s4.05,2.09,6.53,2.09c7.36,0,13-3,13-10.42,0-5.89-3.31-12.73-16.45-12.73-4.46,0-4.79.44-4.79,1.93Z"/><path class="cls-1" d="M241.91,310.58c0-6.74-.14-7.82-4.3-8.13l-1.77-.13c-.42-.26-.28-1.4.14-1.59,3.53.12,5.93.19,8.9.19,2.82,0,5.22-.07,8.75-.19.42.19.56,1.33.14,1.59l-1.76.13c-4.17.31-4.31,1.39-4.31,8.13v22.64c0,6.74.14,7.63,4.31,8.08l1.76.19c.42.25.28,1.4-.14,1.59-3.53-.13-5.93-.19-8.75-.19-3,0-5.37.06-8.9.19a1.15,1.15,0,0,1-.14-1.59l1.77-.19c4.16-.45,4.3-1.34,4.3-8.08Z"/><path class="cls-1" d="M281.07,333.35c0,6.68.14,7.63,4,7.95l2.12.19c.39.25.26,1.4-.13,1.59-3.78-.13-6-.19-8.67-.19s-5,.06-9.19.19a1.08,1.08,0,0,1,0-1.59l2.38-.19c3.77-.32,4.1-1.27,4.1-7.95V304.92c0-2,0-2-2-2H270c-2.85,0-6.48.13-8.14,1.59a11.68,11.68,0,0,0-3,4.39,1.31,1.31,0,0,1-1.72-.45,64.26,64.26,0,0,0,2.51-9.47,1.71,1.71,0,0,1,1.26,0c.4,2,2.58,2,5.62,2h26.78c3.57,0,4.17-.13,5.16-1.78.33-.13,1.06-.06,1.19.19a37.34,37.34,0,0,0-1,9.67c-.26.5-1.39.5-1.72.12-.2-1.59-.66-3.94-1.65-4.64-1.52-1.08-4-1.59-7.67-1.59H283c-2,0-1.92.06-1.92,2.16Z"/><path class="cls-1" d="M309.42,310.58c0-6.74-.14-7.82-4.31-8.13l-1.76-.13c-.43-.26-.28-1.4.14-1.59,3.53.12,5.93.19,8.89.19s5.23-.07,8.76-.19c.42.19.56,1.33.14,1.59l-1.77.13c-4.16.31-4.3,1.39-4.3,8.13v22.64c0,6.74.14,7.63,4.3,8.08l1.77.19c.42.25.28,1.4-.14,1.59-3.53-.13-5.93-.19-8.76-.19s-5.36.06-8.89.19a1.14,1.14,0,0,1-.14-1.59l1.76-.19c4.17-.45,4.31-1.34,4.31-8.08Z"/><path class="cls-1" d="M341.05,343.73a26.83,26.83,0,0,1-11.71-2.35c-.9-1.4-1.87-5.92-2-8.91.37-.44,1.5-.57,1.8-.19,1.12,3.25,4.2,9.48,12.91,9.48,6.3,0,9.38-3.5,9.38-7.31,0-2.8-.68-5.92-6.16-8.91l-7.12-3.94c-3.76-2.1-8.11-5.72-8.11-10.94,0-6,5.55-10.94,15.31-10.94a34.22,34.22,0,0,1,7,.83,11.48,11.48,0,0,0,2.63.38,23.84,23.84,0,0,1,1.35,7.76,1.69,1.69,0,0,1-1.87.19c-1-3.05-3-7.18-10.21-7.18s-8.93,4.13-8.93,7.05c0,3.69,3.6,6.37,6.38,7.83l6,3.18c4.73,2.48,9.38,6.16,9.38,12.21C357,339,350.81,343.73,341.05,343.73Z"/><path class="cls-1" d="M378.82,322.35c-3.28,0-3.42.13-3.42,2v9c0,6.68.34,7.57,4.17,7.95l2,.19c.41.25.27,1.4-.14,1.59-3.7-.13-6-.19-8.69-.19-2.94,0-5.27.13-7.94.19a1.16,1.16,0,0,1-.13-1.59l1.16-.19c3.83-.64,4-1.27,4-7.95V310.46c0-6.68-.48-7.76-4-8l-1.78-.13c-.41-.26-.27-1.4.14-1.59,3.35.06,5.68.19,8.62.19,2.67,0,5-.07,7.94-.19.41.19.54,1.33.13,1.59l-1.3.13c-4,.38-4.1,1.33-4.1,8v7.31c0,2,.14,2,3.42,2h19.57c3.28,0,3.42-.06,3.42-2v-7.31c0-6.68-.14-7.63-4.17-8l-1.3-.13c-.41-.26-.28-1.4.13-1.59,3.15.12,5.48.19,8.28.19s5-.07,8.08-.19c.41.19.54,1.33.13,1.59l-1.43.13c-4,.38-4.11,1.33-4.11,8v22.89c0,6.68.14,7.5,4.11,7.95l1.64.19c.41.25.28,1.4-.14,1.59-3.28-.13-5.61-.19-8.28-.19s-5.26.06-8.28.19a1.17,1.17,0,0,1-.13-1.59l1.3-.19c4.17-.64,4.17-1.27,4.17-7.95v-9c0-1.9-.14-2-3.42-2Z"/><path class="cls-1" d="M109.78,357.05c5.62-4.37,12.79-6.52,20.8-6.52a59.56,59.56,0,0,1,13.64,1.84,6,6,0,0,0,2.16.31c.07,1.76.46,6.6,1.08,11.28a1.63,1.63,0,0,1-2.08.16c-1.16-5.22-4.63-11.21-15.8-11.21-11.79,0-21.8,7.44-21.8,23.34,0,16.12,10.24,25,22.88,25,9.94,0,14.33-6.45,16.1-11a1.63,1.63,0,0,1,2,.3c-.54,4-2.55,9.06-3.7,10.52a15.84,15.84,0,0,0-2.7.77,45.29,45.29,0,0,1-12.17,1.77c-6.94,0-13.56-1.39-19.19-5.15a24.73,24.73,0,0,1-10.94-21.11A25.47,25.47,0,0,1,109.78,357.05Z"/><path class="cls-1" d="M151.92,381.89c0-12.72,10-22.45,23.77-22.45,15.42,0,23.17,10.62,23.17,21.81,0,12.85-10.28,22.2-23.17,22.2C160.87,403.45,151.92,393.33,151.92,381.89Zm40.26,1.33c0-10.49-4.87-21.81-17.63-21.81-6.94,0-16,4.51-16,18.44,0,9.41,4.8,21.62,18,21.62C184.57,401.47,192.18,395.75,192.18,383.22Z"/><path class="cls-1" d="M274.19,376.42c0-3.94-.14-11.26-1.28-13.16-.47-.77-1.69-1.21-3.37-1.34l-1.69-.13a1.09,1.09,0,0,1,.14-1.52c2.56.12,5.05.19,7.68.19,2.83,0,4.65-.07,7.08-.19a1,1,0,0,1,.13,1.52l-1.61.13c-1.69.13-3,.7-3.37,1.53-.95,2.09-.95,9.41-.95,13v7.19c0,5.53-.94,11.38-4.72,15.19-2.89,3-7.88,4.65-12.87,4.65-4.65,0-9.3-.83-12.61-3.5-3.57-2.8-5.25-7.44-5.25-15v-15c0-6.61-.14-7.69-4.05-8l-1.68-.13c-.41-.25-.27-1.33.13-1.52,3.37.12,5.66.19,8.36.19s5-.07,8.29-.19c.4.19.54,1.27.14,1.52l-1.62.13c-3.91.32-4,1.4-4,8v13.74c0,10.24,3.37,17,13.69,17,9.77,0,13.48-7.25,13.48-16.92Z"/><path class="cls-1" d="M352.54,368.48c0-4.76-.3-6-3.66-6.24L346.5,362c-.27-.24-.42-1.53.07-1.57,4-.29,9.1-.51,16-.51,4.7,0,9.17.32,12.52,1.8,3.2,1.35,5.66,3.92,5.66,8,0,4.62-3.13,7-7.6,8.8,0,.64.6.83,1.42,1,4,.64,10,3.86,10,10.73,0,7.45-6.4,12.46-19.82,12.46-2.16,0-5.81-.2-8.94-.2s-5.81.13-8.57.2a1.14,1.14,0,0,1-.15-1.61l1.35-.19c3.95-.58,4.1-1.28,4.1-8Zm6.11,8.54c0,1.8.07,1.92,3.87,1.8,7.6-.26,11.7-2.19,11.7-8.23,0-6.29-5.44-8.67-11.1-8.67a10.43,10.43,0,0,0-3.43.39c-.75.19-1,.51-1,1.67Zm0,14.9c0,2.31.14,5.59,1.56,7s3.65,1.8,5.89,1.8c6.63,0,11.69-2.57,11.69-9,0-5.08-3-11-14.82-11-4,0-4.32.39-4.32,1.67Z"/><rect class="cls-2" x="142.59" y="419.78" width="270.65" height="3.2"/><path class="cls-1" d="M231.12,341.49l-1.76-.15-1-.13c-2.58-.46-3.61-2.76-4.83-4.89l-6.1-10.63c-1.06-1.78-2.19-4.16-4.6-4.5,6.26-.75,11.91-4.36,11.91-10.56,0-7.16-7.09-10.36-14.25-10.36-4.29,0-8.21.12-12.58.12-2.41,0-5.28-.12-7.69-.12-1.34,0-1.36.27-1.36,1,0,1.11.47.8,1.89.88,5.09.28,4.9,1.23,4.9,5.59v27.87c0,4,.34,5.18-3.85,5.56l-1,.1-1.78.19a1.15,1.15,0,0,0,.15,1.59l2.61-.11c2.32-.06,4.64-.24,7-.24s4.56.18,6.85.24h0l2.62.09a1.15,1.15,0,0,0,.14-1.59l-1.79-.17-1-.1c-4.23-.28-4-1.48-4-5.57V325.14c0-.61-.08-2.25.38-2.72s1.05-.35,1.65-.35c5.73,0,5.66.55,8.37,5.32l7.39,13.29c.6,1,1.05,2.31,2.56,2.31h6.41l2.6.09A1.13,1.13,0,0,0,231.12,341.49Zm-25.72-20.9c-1.28,0-3.85.48-3.85-1.22v-12.2c0-4.77.15-5.45,5.88-5.45,6.71,0,10.85,3.41,10.85,9.68a8,8,0,0,1-3.46,7C212,320.32,208.86,320.59,205.4,320.59Z"/><path class="cls-1" d="M206.78,370.15c0-6.68-.14-7.7-4.55-8l-1.75-.13c-.41-.26-.27-1.4.14-1.59,3.92.12,6.3.19,9.1.19s5.1-.07,8.6-.19c.42.19.56,1.33.14,1.59l-1.68.13c-4.12.31-4.26,1.33-4.26,8v22.13c0,4,.21,5.66,1.46,6.87.77.69,2.1,1.46,7.63,1.46,5.95,0,7.41-.25,8.54-.83,1.39-.76,3.21-3,4.61-6.29.42-.32,1.75-.07,1.75.38a47.58,47.58,0,0,1-2.94,8.9c-3.57-.13-10.21-.19-17.42-.19h-6.43c-2.94,0-5.18.06-9.1.19a1.17,1.17,0,0,1-.14-1.59l2.1-.19c4.06-.38,4.2-1.27,4.2-7.95Z"/><path class="cls-1" d="M394.17,370.27c0-6.74-.14-7.82-4.19-8.13l-1.72-.13c-.41-.26-.27-1.4.14-1.59,3.44.12,5.77.19,8.66.19s5.08-.07,8.51-.19c.41.19.55,1.33.14,1.59l-1.72.13c-4.05.31-4.19,1.39-4.19,8.13v22.65c0,6.73.14,7.63,4.19,8.07l1.72.19c.41.26.27,1.4-.14,1.59-3.43-.13-5.77-.19-8.51-.19s-5.22.06-8.66.19a1.17,1.17,0,0,1-.14-1.59L390,401c4-.44,4.19-1.34,4.19-8.07Z"/><path class="cls-1" d="M339.29,401l-1-.1a2.67,2.67,0,0,1-1.89-.73c-.89-.95-.81-3.65-.81-4.73V367.56c0-1.22-.3-3.85.59-4.79a3.33,3.33,0,0,1,2.2-.63h0l.95-.07,1.77-.12c.42-.26.28-1.4-.15-1.59-.94,0-1.8,0-2.61.05h-7.5c-.82,0-1.56,0-2,.88l-15.29,31.84L300,362.37c-.45-1.08-.52-2-1.93-2h-7.81c-.82,0-1.71,0-2.66-.05-.42.19-.56,1.33-.14,1.59l1.77.12c.36,0,1,.08,1,.08,2.93.19,3.11.84,2.84,3.92L290.82,396c-.2,3-.36,4.59-3.5,4.88,0,0-.67.09-1,.12l-1.77.2a1.14,1.14,0,0,0,.14,1.58l2.59-.08c1.59-.08,3.21-.22,4.84-.22s3.5.17,5.25.24h0l2.62.09a1.15,1.15,0,0,0,.14-1.59l-1.76-.19-1-.09c-4.54-.31-4.43-3.52-4.15-7.43l2.15-27.8h.52l14.62,34.21c.15.47.37,1.28,1.11,1.28s.9-.74,1.12-1.22l16.47-35.08h.52v30.56c0,1.22.15,3.72-1.11,4.66a9.33,9.33,0,0,1-2.8.79l-1,.12-1.76.19a1.13,1.13,0,0,0,.14,1.59l2.58-.09c2.39-.06,4.82-.24,7.25-.24,1.75,0,5.18.17,5.18.17.81,0,1.74.11,2.68.15a1.14,1.14,0,0,0,.15-1.59Z"/><path class="cls-1" d="M454,401.15l-.24-.19-1-.13c-2.75-.61-3.82-3.93-4.84-6.29l-14.15-33.49c-.14-.4-.42-1.27-1-1.27-.77,0-1,.94-1.19,1.47L418.1,394.68c-.49,1.26-1.75,4.33-2.66,5.27a3.91,3.91,0,0,1-2.58.95l-1.13.11-1.66.17a1.15,1.15,0,0,0,.14,1.59l2.62-.09c1.85,0,3.7-.26,5.55-.26,1.56,0,3.11.16,4.67.23l2.61.1a1.14,1.14,0,0,0,.15-1.59L424,401l-1-.1c-1.62-.18-3.65-.47-3.65-2.26a11,11,0,0,1,1-3.67l2.1-5c1.05-2.4.63-2.67,3.43-2.67h9.53c3.36,0,2.87,0,4.35,3.4l2.24,5.07a11.09,11.09,0,0,1,1,3.27c0,1.68-1.83,1.79-3.54,1.94l-1.06.08-1.7.13a1.15,1.15,0,0,0,.14,1.59l2.62-.11c2-.07,4-.22,5.92-.22,2.45,0,4.91.16,7.36.23h0c.81,0,.13.05,1.06.09A1.15,1.15,0,0,0,454,401.15Zm-18.54-15.74h-8.26c-.28,0-2.58.27-2.58-.41a3.38,3.38,0,0,1,.21-.8l5-12.28c.14-.33.65-2,1.22-2s1,1.75,1.15,2L437,383.39c0,.13.5,1.21.5,1.48C437.52,385.61,435.87,385.41,435.44,385.41Z"/><path class="cls-1" d="M178.17,256.19c44.71,0,106.54,25.17,151.41,25.17,32,0,63.26-8.54,81-21.13A136,136,0,1,0,142.31,260C147.21,259.07,163.88,256.19,178.17,256.19Z"/><polygon class="cls-2" points="364.37 206.06 369.75 208.29 381.68 199.97 364.37 206.06"/><path class="cls-2" d="M163.94,196.77l-14.14-5,.71-1.73,15.92,5.31.07,0,2.1-1.19.84-.53-17.36-7.39.73-1.81,38.76,15.67,1.27-.53-38.43-18.73.86-1.76L196,198l.57-.29-39.49-22.4.81-1.68,57,31c.46-.86,1.44-2.43,1.94-3.28a506.64,506.64,0,0,0-42.6-35.69,507.69,507.69,0,0,0,48.07,27.8c.88-1.09,1.6-2,2.53-3L176.2,147.68l1.31-1.34,39.27,33.47L180.4,143.37l1.36-1.41,40.84,39.48-38-42.2,1.46-1.31,35.14,37.63L189.1,135.14l1.39-1.25,41.11,50c1.06-.92,1.94-1.61,3.06-2.46a508.32,508.32,0,0,0-26-48.8,507.61,507.61,0,0,0,34,43.56c1.19-.67,2.4-1.32,3.63-1.92l-.21-.13-28.81-57.51,1.71-.75,23.87,45.74-20.08-47.41,1.79-.79,23.09,51.9L228.14,112l1.84-.67,18.49,48.05-14.6-49.49,1.75-.64,19.22,61.37,0,.17,0,0c1.28-.43,2.58-.81,3.88-1.17a507.37,507.37,0,0,0-5.82-54.69A508.3,508.3,0,0,0,268,167.75c1.35-.16,2.71-.3,4.08-.4l-.05-.06h.17l-.1-.14L266.92,103l1.87-.06,5,51.36-.86-51.48,2-.07,2,56.77,2-56.77,2,.07-.86,51.48,5-51.35,1.87.05-5.18,64.11-.1.14h0v0h.08c1.34.08,2.67.22,4,.38a509.18,509.18,0,0,0,15.05-52.8,509.24,509.24,0,0,0-5.81,54.56c1.32.35,2.62.74,3.91,1.16l19.15-61.16,1.76.64L305,159.58l18.49-48.06,1.84.68-19.44,53.36L329,113.66l1.79.8-20.08,47.41,23.87-45.74,1.71.75-28.71,57.3.05,0c1.18.57,2.34,1.19,3.49,1.82a507.43,507.43,0,0,0,33.79-43.36A507.51,507.51,0,0,0,319,181.18c1.11.84,2.19,1.7,3.24,2.6l40.63-49.49,1.39,1.26L332.21,176l35.14-37.63,1.46,1.31-38,42.2,40.84-39.47,1.36,1.41-36.38,36.43,39.27-33.47,1.31,1.34-48.06,42.35,0,0c.84.94,1.64,1.9,2.44,2.88a508.69,508.69,0,0,0,47.71-27.62A506.76,506.76,0,0,0,337,201.11c.59,1,1.54,2.67,2.09,3.69l56.22-30.61.81,1.68-44.88,25.46,46.68-21.73.86,1.76-43.48,21.19.83.29L400.39,185l.74,1.82L360,204.26l.77.31,27.4-9.13,4.13-2.88,1.37,1,9-3,.71,1.73-7.81,2.74,11.28,8.6,3.61,2a137.81,137.81,0,0,0-268.73,3.2l.51-.24,1.65-.75,1-.47Z"/><path class="cls-3" d="M141,262.92s20.33-4.06,37.29-4.06C223,258.86,284.81,284,329.68,284c32.91,0,65-9,82.51-22.2a138.94,138.94,0,0,0-1.7-56.14l-18.71-10.43-21.94,15.39-14.77-5.75c-5,2.52-35.83,23.15-35.83,23.15l-11.84-8.57L294.71,217l-16.94-12.32L258.35,218s-21.67,12.58-22.41,12.58-26.15-20.13-26.15-20.13l-11.7-12.33c-2,1.26-10,4.91-10,4.91l-.41.11-7.7-2.38-9.35-5-28.41,12.88-.51.24a138.75,138.75,0,0,0-.78,54Z"/></svg>