<svg xmlns="http://www.w3.org/2000/svg" width="64" height="64" viewBox="0 0 64 64">
  <g id="Group_1638" data-name="Group 1638" transform="translate(-79 -119)">
    <g id="Group_1186" data-name="Group 1186" transform="translate(67.551 55.841)">
      <g id="Group_1185" data-name="Group 1185" transform="translate(13.449 65.159)">
        <path id="Path_317" data-name="Path 317" d="M13.449,86.031V65.159H34.321" transform="translate(-13.449 -65.159)" fill="none" stroke="#313132" stroke-linecap="round" stroke-linejoin="round" stroke-width="4"/>
        <path id="Path_318" data-name="Path 318" d="M62.259,65.159H83.131V86.031" transform="translate(-23.131 -65.159)" fill="none" stroke="#313132" stroke-linecap="round" stroke-linejoin="round" stroke-width="4"/>
        <path id="Path_319" data-name="Path 319" d="M83.131,113.969v20.872H62.259" transform="translate(-23.131 -74.841)" fill="none" stroke="#313132" stroke-linecap="round" stroke-linejoin="round" stroke-width="4"/>
        <path id="Path_320" data-name="Path 320" d="M34.321,134.841H13.449V113.969" transform="translate(-13.449 -74.841)" fill="none" stroke="#313132" stroke-linecap="round" stroke-linejoin="round" stroke-width="4"/>
      </g>
      <path id="Icon_metro-qrcode" data-name="Icon metro-qrcode" d="M35.164,75.83H24.121V86.874H35.164Zm2.761-2.761V89.64H21.359V73.069ZM26.881,78.591H32.4v5.522H26.881ZM62.772,75.83H51.728V86.874H62.772Zm2.761-2.761V89.64H48.967V73.069ZM54.489,78.591h5.522v5.522H54.489ZM35.158,103.438H24.121v11.044H35.164Zm2.761-2.761v16.567H21.359V100.677ZM26.881,106.2H32.4v5.522H26.881Zm13.8-33.13h2.761V75.83H40.685Zm2.761,2.761h2.76v2.761h-2.76Zm-2.761,2.761h2.761v2.761H40.685Zm2.761,2.761h2.76v2.761h-2.76Zm-2.761,2.761h2.761v2.761H40.685Zm2.761,2.761h2.76V89.64h-2.76ZM40.685,89.64h2.761V92.4H40.685Zm0,5.521h2.761v2.755H40.685Zm2.761,2.761h2.76v2.761h-2.76Zm-2.761,2.761h2.761v2.761H40.685Zm2.761,2.761h2.76V106.2h-2.76ZM40.685,106.2h2.761v2.761H40.685Zm2.761,2.761h2.76v2.761h-2.76Zm-2.761,2.761h2.761v2.761H40.685Zm2.761,2.761h2.76v2.761h-2.76ZM62.778,95.156h2.761v2.76H62.772Zm-38.652,0h2.755v2.76h-2.76ZM26.887,92.4h2.755v2.761H26.881Zm-5.522,0h2.756v2.761H21.359Zm11.044,0h2.761v2.761H32.4Zm2.761,2.761H37.93v2.76H35.164ZM37.93,92.4h2.761v2.761H37.924Zm8.282,2.761h2.761v2.76H46.206ZM48.973,92.4h2.761v2.761H48.967Zm2.761,2.761h2.761v2.76H51.728ZM54.495,92.4h2.761v2.761H54.489Zm2.761,2.761h2.761v2.76H57.25ZM60.017,92.4h2.761v2.761H60.011Zm2.761,8.282h2.761v2.761H62.772Zm-16.565,0h2.761v2.761H46.206Zm2.761-2.761h2.761v2.761H48.967Zm2.761,2.761h2.761v2.761H51.728Zm5.522,0h2.761v2.761H57.25Zm2.761-2.761h2.761v2.761H60.011Zm2.761,8.283h2.761v2.761H62.772Zm-16.565,0h2.761v2.761H46.206Zm2.761-2.761h2.761V106.2H48.967Zm5.522,0h2.761V106.2H54.489Zm2.761,2.761h2.761v2.761H57.25Zm2.761-2.761h2.761V106.2H60.011Zm2.761,8.283h2.761v2.761H62.772Zm-13.8-2.761h2.761v2.761H48.967Zm2.761,2.761h2.761v2.761H51.728Zm2.761-2.761h2.761v2.761H54.489Zm2.761,2.761h2.761v2.761H57.25Zm-8.283,2.761h2.761v2.761H48.967Zm5.522,0h2.761v2.761H54.489Zm5.522,0h2.761v2.761H60.011Z" transform="translate(0)" fill="#313132"/>
    </g>
    <rect id="Rectangle_726" data-name="Rectangle 726" width="64" height="64" transform="translate(79 119)" fill="none"/>
  </g>
</svg>
