<svg id="Layer_1" data-name="Layer 1" xmlns="http://www.w3.org/2000/svg" viewBox="0 0 48 48"><rect x="6" y="6" width="6" height="6"/><rect x="21" y="18" width="3" height="3"/><rect x="24" y="15" width="3" height="3"/><rect x="21" y="12" width="3" height="3"/><rect x="24" y="9" width="3" height="3"/><rect x="21" y="6" width="3" height="3"/><rect x="24" y="3" width="3" height="3"/><rect x="24" y="6" width="3" height="3"/><rect x="21" width="3" height="3"/><rect y="21" width="3" height="3"/><rect x="6" y="21" width="3" height="3"/><rect x="15" y="21" width="3" height="3"/><rect x="24" y="21" width="3" height="3"/><rect x="30" y="21" width="3" height="3"/><rect x="36" y="21" width="3" height="3"/><rect x="42" y="21" width="3" height="3"/><rect x="3" y="24" width="3" height="3"/><rect x="9" y="24" width="3" height="3"/><rect x="21" y="24" width="3" height="3"/><rect x="15" y="24" width="3" height="3"/><rect x="27" y="24" width="3" height="3"/><rect x="30" y="24" width="3" height="3"/><rect x="33" y="24" width="3" height="3"/><rect x="39" y="24" width="3" height="3"/><rect x="42" y="24" width="3" height="3"/><rect x="24" y="27" width="3" height="3"/><rect x="30" y="27" width="3" height="3"/><rect x="36" y="27" width="3" height="3"/><rect x="39" y="27" width="3" height="3"/><rect x="45" y="27" width="3" height="3"/><rect x="21" y="30" width="3" height="3"/><rect x="24" y="30" width="3" height="3"/><rect x="27" y="30" width="3" height="3"/><rect x="36" y="30" width="3" height="3"/><rect x="42" y="30" width="3" height="3"/><rect x="30" y="33" width="3" height="3"/><rect x="33" y="33" width="3" height="3"/><rect x="39" y="33" width="3" height="3"/><rect x="42" y="33" width="3" height="3"/><rect x="21" y="36" width="3" height="3"/><rect x="24" y="36" width="3" height="3"/><rect x="30" y="36" width="3" height="3"/><rect x="36" y="36" width="3" height="3"/><rect x="39" y="36" width="3" height="3"/><rect x="45" y="36" width="3" height="3"/><rect x="24" y="39" width="3" height="3"/><rect x="27" y="39" width="3" height="3"/><rect x="33" y="39" width="3" height="3"/><rect x="39" y="39" width="3" height="3"/><rect x="42" y="39" width="3" height="3"/><rect x="45" y="39" width="3" height="3"/><rect x="21" y="42" width="3" height="3"/><rect x="27" y="42" width="3" height="3"/><rect x="30" y="42" width="3" height="3"/><rect x="36" y="42" width="3" height="3"/><rect x="42" y="42" width="3" height="3"/><rect x="24" y="45" width="3" height="3"/><rect x="33" y="45" width="3" height="3"/><rect x="42" y="45" width="3" height="3"/><path d="M15,3V15H3V3H15m3-3H0V18H18V0Z"/><rect x="6" y="35.98" width="6" height="6"/><path d="M15,33V45H3V33H15m3-3H0V48H18V30Z"/><rect x="36" y="6" width="6" height="6"/><path d="M45,3V15H33V3H45m3-3H30V18H48V0Z"/></svg>