<svg xmlns="http://www.w3.org/2000/svg" width="32.91" height="31.848" viewBox="0 0 32.91 31.848">
  <g id="QR_code" data-name="QR code" transform="translate(-291 -176)">
    <g id="Path_393" data-name="Path 393" transform="translate(291 176)" fill="rgba(255,255,255,0)">
      <path d="M 27.60187149047852 31.34831619262695 L 5.308051586151123 31.34831619262695 C 2.656881809234619 31.34831619262695 0.5000017881393433 29.19143676757812 0.5000017881393433 26.54026794433594 L 0.5000017881393433 5.308057308197021 C 0.5000017881393433 3.884097099304199 0.8212217688560486 2.687567234039307 1.42894172668457 1.847827196121216 C 2.076191663742065 0.953477144241333 3.024131774902344 0.4999971389770508 4.246441841125488 0.4999971389770508 L 27.60187149047852 0.4999971389770508 C 30.25304222106934 0.4999971389770508 32.4099235534668 2.656887054443359 32.4099235534668 5.308057308197021 L 32.4099235534668 26.54026794433594 C 32.4099235534668 29.19143676757812 30.25304222106934 31.34831619262695 27.60187149047852 31.34831619262695 Z" stroke="none"/>
      <path d="M 4.246440887451172 0.9999980926513672 C 3.178741455078125 0.9999980926513672 2.389621734619141 1.37321662902832 1.834001541137695 2.140966415405273 C 1.28839111328125 2.894876480102539 1.000001907348633 3.99003791809082 1.000001907348633 5.308046340942383 L 1.000001907348633 26.54025650024414 C 1.000001907348633 28.91572761535645 2.932580947875977 30.84831619262695 5.308052062988281 30.84831619262695 L 27.60187149047852 30.84831619262695 C 29.97734260559082 30.84831619262695 31.90992164611816 28.91572761535645 31.90992164611816 26.54025650024414 L 31.90992164611816 5.308046340942383 C 31.90992164611816 2.932577133178711 29.97734260559082 0.9999980926513672 27.60187149047852 0.9999980926513672 L 4.246440887451172 0.9999980926513672 M 4.246440887451172 -1.9073486328125e-06 L 27.60187149047852 -1.9073486328125e-06 C 30.53343200683594 -1.9073486328125e-06 32.9099235534668 2.376497268676758 32.9099235534668 5.308046340942383 L 32.9099235534668 26.54025650024414 C 32.9099235534668 29.47181701660156 30.53343200683594 31.84831619262695 27.60187149047852 31.84831619262695 L 5.308052062988281 31.84831619262695 C 2.376491546630859 31.84831619262695 0 29.47181701660156 0 26.54025650024414 L 0 5.308046340942383 C 0 2.376497268676758 1.314882278442383 -1.9073486328125e-06 4.246440887451172 -1.9073486328125e-06 Z" stroke="none" fill="#fff"/>
    </g>
    <g id="QR_code-2" data-name="QR code" transform="translate(0.348 -0.076)">
      <g id="Group_1780" data-name="Group 1780" transform="translate(297.326 182)">
        <path id="Path_367" data-name="Path 367" d="M6.667,1.333V6.667H1.333V1.333H6.667M8,0H0V8H8V0Z" fill="#fff"/>
      </g>
      <g id="Group_1781" data-name="Group 1781" transform="translate(308.889 182)">
        <path id="Path_367-2" data-name="Path 367" d="M6.667,1.333V6.667H1.333V1.333H6.667M8,0H0V8H8V0Z" fill="#fff"/>
      </g>
      <g id="Group_1782" data-name="Group 1782" transform="translate(297.326 199)">
        <path id="Path_367-3" data-name="Path 367" d="M6.667,1.333V6.667H1.333V1.333H6.667M8,0H0V8H8V0Z" transform="translate(0 -5)" fill="#fff"/>
        <rect id="Rectangle_1341" data-name="Rectangle 1341" width="1.875" height="1.875" transform="translate(3.063 -1.875)" fill="#fff"/>
      </g>
      <g id="Group_1783" data-name="Group 1783" transform="translate(0.125 -0.125)">
        <rect id="Rectangle_1329" data-name="Rectangle 1329" width="1.875" height="1.875" transform="translate(308.889 194.125)" fill="#fff"/>
        <rect id="Rectangle_1330" data-name="Rectangle 1330" width="1.875" height="1.875" transform="translate(310.889 196.125)" fill="#fff"/>
        <rect id="Rectangle_1331" data-name="Rectangle 1331" width="1.875" height="1.875" transform="translate(312.889 198.125)" fill="#fff"/>
        <rect id="Rectangle_1332" data-name="Rectangle 1332" width="1.875" height="1.875" transform="translate(314.889 200.125)" fill="#fff"/>
        <rect id="Rectangle_1334" data-name="Rectangle 1334" width="1.875" height="1.875" transform="translate(312.889 196.125)" fill="#fff"/>
        <rect id="Rectangle_1336" data-name="Rectangle 1336" width="1.875" height="1.875" transform="translate(308.889 200.125)" fill="#fff"/>
        <rect id="Rectangle_1337" data-name="Rectangle 1337" width="1.875" height="1.875" transform="translate(308.889 194.125)" fill="#fff"/>
      </g>
      <rect id="Rectangle_1339" data-name="Rectangle 1339" width="1.875" height="1.875" transform="translate(300.389 185.063)" fill="#fff"/>
      <rect id="Rectangle_1340" data-name="Rectangle 1340" width="1.875" height="1.875" transform="translate(311.951 185.063)" fill="#fff"/>
    </g>
  </g>
</svg>
