<svg xmlns="http://www.w3.org/2000/svg" width="200" height="200" viewBox="0 0 200 200">
  <g id="Group_1628" data-name="Group 1628" opacity="0.7">
    <rect id="Rectangle_716" data-name="Rectangle 716" width="200" height="200" fill="none"/>
    <g id="Group_1627" data-name="Group 1627">
      <path id="Path_335" data-name="Path 335" d="M165.86,131.613v15.461a9.057,9.057,0,0,1-9.057,9.058H43.2a9.057,9.057,0,0,1-9.057-9.058V60.138" fill="none" stroke="#000" stroke-width="4"/>
      <path id="Path_336" data-name="Path 336" d="M138.689,69.195H156.8a9.057,9.057,0,0,1,9.057,9.057V98.688" fill="none" stroke="#000" stroke-width="4"/>
      <path id="Path_337" data-name="Path 337" d="M111.542,51.08h18.09a9.057,9.057,0,0,1,9.057,9.058v9.057H43.2a9.057,9.057,0,0,1-9.057-9.057h0A9.057,9.057,0,0,1,43.2,51.08H61.542" fill="none" stroke="#000" stroke-linecap="round" stroke-width="4"/>
      <path id="Rectangle_717" data-name="Rectangle 717" d="M16.463,0H48.578a0,0,0,0,1,0,0V32.925a0,0,0,0,1,0,0H16.463A16.463,16.463,0,0,1,0,16.463v0A16.463,16.463,0,0,1,16.463,0Z" transform="translate(124.783 98.688)" fill="none" stroke="#000" stroke-linejoin="round" stroke-width="4"/>
      <circle id="Ellipse_26" data-name="Ellipse 26" cx="5.31" cy="5.31" r="5.31" transform="translate(135.395 109.834)" fill="none" stroke="#000" stroke-width="4"/>
      <line id="Line_12" data-name="Line 12" y2="14.243" transform="translate(86.414 38.286)" fill="none" stroke="#000" stroke-linecap="round" stroke-width="4"/>
      <line id="Line_13" data-name="Line 13" x2="8.806" y2="8.806" transform="translate(70.032 47.094)" fill="none" stroke="#000" stroke-linecap="round" stroke-width="4"/>
      <line id="Line_14" data-name="Line 14" x1="8.806" y2="8.806" transform="translate(93.99 47.094)" fill="none" stroke="#000" stroke-linecap="round" stroke-width="4"/>
      <path id="Path_338" data-name="Path 338" d="M93.661,55.9" fill="none" stroke="#000" stroke-linecap="round" stroke-width="4"/>
      <path id="Path_339" data-name="Path 339" d="M103.49,46.072" fill="none" stroke="#000" stroke-linecap="round" stroke-width="4"/>
    </g>
  </g>
</svg>
